<svg xmlns="http://www.w3.org/2000/svg" viewBox="0 0 40 40" fill="none" x="3960"><path d="M20 40c11.0834 0 20-8.9166 20-20S31.0834 0 20 0 0 8.9166 0 20s8.9166 20 20 20z" fill="#2775CA"/><path d="M25 22.5933c0-3.0497-1.7239-4.0953-5.1717-4.531-2.4627-.3486-2.9552-1.0456-2.9552-2.2656 0-1.2201.821-2.0041 2.4627-2.0041 1.4776 0 2.2986.5228 2.709 1.8299.0821.2614.3284.4356.5747.4356h1.3133c.3284 0 .5747-.2614.5747-.6098v-.0873c-.3285-1.917-1.8061-3.3983-3.6941-3.5725V9.6972c0-.3486-.2463-.61-.6566-.6972h-1.2314c-.3284 0-.5747.2614-.6568.6972v2.0041c-2.4627.3486-4.0223 2.0913-4.0223 4.2698 0 2.8755 1.6417 4.0081 5.0895 4.4439 2.2986.4357 3.0374.9585 3.0374 2.3527 0 1.3943-1.1494 2.3527-2.709 2.3527-2.1345 0-2.8733-.9586-3.1195-2.2657-.082-.3484-.3283-.5228-.5745-.5228h-1.3957c-.3282 0-.5745.2614-.5745.61v.0872c.3282 2.1783 1.6417 3.7468 4.3507 4.1826v2.0913c0 .3484.2463.6098.6567.697h1.2313c.3284 0 .5747-.2614.6569-.697v-2.0913C23.3583 26.7759 25 24.946 25 22.5933z" fill="#fff"/><path d="M15.7615 32.1387c-6.4824-2.4276-9.8068-9.971-7.3965-16.6475 1.2466-3.6416 3.9891-6.4161 7.3965-7.7167.3325-.1733.4986-.4334.4986-.8671V5.6936c0-.347-.1661-.607-.4986-.6936-.0832 0-.2493 0-.3325.0866C7.5338 7.6877 3.2121 16.445 5.7054 24.682c1.496 4.8554 5.0696 8.5839 9.7236 10.1446.3325.1733.665 0 .748-.3469.0831-.0866.0831-.1734.0831-.3467v-1.214c0-.2602-.2493-.6068-.4986-.7804zM24.571 5.0866c-.3325-.1734-.665 0-.748.3469-.0831.0867-.0831.1733-.0831.3468v1.2139c0 .3468.2493.6935.4986.867 6.4824 2.4277 9.8068 9.9711 7.3965 16.6476-1.2466 3.6416-3.9891 6.4161-7.3965 7.7167-.3325.1733-.4986.4335-.4986.8671v1.2138c0 .3469.1661.607.4986.6936.0832 0 .2493 0 .3325-.0866 7.8952-2.6011 12.2169-11.3585 9.7236-19.5955-1.4959-4.9422-5.1528-8.6706-9.7236-10.2313z" fill="#fff"/></svg>