<svg xmlns="http://www.w3.org/2000/svg" viewBox="0 0 40 40" fill="none" x="4020"><circle cx="20" cy="20" r="20" fill="#00A478"/><path d="M17.7656 19.3812V14.812h-6.1302v-4.0051h17.1302v4.0615h-6.1302v4.5128h-4.8698z" fill="#fff"/><path fill-rule="evenodd" clip-rule="evenodd" d="M9 19.7688c0-1.4569 4.9016-2.644 11-2.644s11 1.1871 11 2.644c0 1.4568-4.9016 2.6439-11 2.6439S9 21.2256 9 19.7688zm21.0881 0c-.3989-.5395-3.7046-2.2123-10.088-2.2123-6.3835 0-9.6892 1.6188-10.0881 2.2123.3989.5396 3.7046 1.349 10.0881 1.349 6.4404 0 9.6891-.8094 10.088-1.349z" fill="#fff"/><path d="M22.6354 20.7915v-3.159c-.8021-.0564-1.6614-.1128-2.5208-.1128-.8021 0-1.6029 0-2.3477.0564v3.159c.7053.1105 1.5555.1317 2.3477.1317s1.7187-.0189 2.5208-.0753zM20 22.6421c-.8021 0-1.4896-.0221-2.2344-.0785v8.4382h4.8125v-8.4616c-.8021.0564-1.7187.1019-2.5781.1019z" fill="#fff"/></svg>