<svg id="Layer_1" data-name="Layer 1" xmlns="http://www.w3.org/2000/svg" xmlns:xlink="http://www.w3.org/1999/xlink" viewBox="0 0 61 61"><defs><style>.cls-1{fill:url(#linear-gradient);}.cls-2{fill:url(#linear-gradient-2);}.cls-3{fill:url(#linear-gradient-3);}.cls-4{fill:url(#linear-gradient-4);}.cls-5{fill:url(#linear-gradient-5);}.cls-6{fill:url(#linear-gradient-6);}</style><linearGradient id="linear-gradient" x1="76.32" y1="-12.75" x2="-34.68" y2="97.66" gradientUnits="userSpaceOnUse"><stop offset="0" stop-color="#a4e22d"/><stop offset="1" stop-color="#29e387"/></linearGradient><linearGradient id="linear-gradient-2" x1="79.87" y1="-9.19" x2="-31.14" y2="101.22" xlink:href="#linear-gradient"/><linearGradient id="linear-gradient-3" x1="76.69" y1="-12.39" x2="-34.32" y2="98.02" xlink:href="#linear-gradient"/><linearGradient id="linear-gradient-4" x1="79.98" y1="-9.08" x2="-31.03" y2="101.33" xlink:href="#linear-gradient"/><linearGradient id="linear-gradient-5" x1="76.2" y1="-12.88" x2="-34.8" y2="97.53" xlink:href="#linear-gradient"/><linearGradient id="linear-gradient-6" x1="64.43" y1="-24.71" x2="-46.57" y2="85.7" xlink:href="#linear-gradient"/></defs><title>Vector Smart Object5</title><path class="cls-1" d="M30.25,32.7h0L32,34.41l1.69-1.7a1.85,1.85,0,0,0,.3-.39,1.77,1.77,0,0,0,.19-.56,5.09,5.09,0,0,0-3.39-1.29,4.9,4.9,0,0,0-1,.1v.87a1.78,1.78,0,0,0,.2.83A1.83,1.83,0,0,0,30.25,32.7Z"/><path class="cls-2" d="M34.91,32.63a2.86,2.86,0,0,1-.24.42,3.57,3.57,0,0,1-.31.37h0l-1.69,1.69,1.7,1.7a2.64,2.64,0,0,1,.31.37,2.56,2.56,0,0,1,.44,1,5.12,5.12,0,0,0-.2-5.58Z"/><path class="cls-3" d="M29.53,33.42a2.48,2.48,0,0,1-.36-.44,2.71,2.71,0,0,1-.46-1.54v-.55a5.11,5.11,0,0,0,0,9.37V38.8a2.74,2.74,0,0,1,.46-1.55,3.57,3.57,0,0,1,.36-.43l1.7-1.71Z"/><path class="cls-4" d="M33.64,37.51,32,35.82l-1.7,1.7a1.54,1.54,0,0,0-.33.44,1.8,1.8,0,0,0-.2.84v1.77a4.9,4.9,0,0,0,1,.11,5.1,5.1,0,0,0,2.39-.6,4.89,4.89,0,0,0,1-.72V38.8a1.83,1.83,0,0,0-.23-.9A2.14,2.14,0,0,0,33.64,37.51Z"/><path class="cls-5" d="M53.25,60.5H13.9c-3,0-5.36-2.83-5.36-6.31V6.81C8.54,3.33,11,.5,13.9.5H52.43a.82.82,0,1,1,0,1.64H13.9c-2.05,0-3.72,2.09-3.72,4.67s1.67,4.66,3.72,4.66H53.25ZM10.18,11.34V54.19c0,2.58,1.67,4.67,3.72,4.67H51.61V13.11H13.9A5,5,0,0,1,10.18,11.34Z"/><path class="cls-6" d="M51.6,7.62H13.9A.82.82,0,1,1,13.9,6H51.6a.82.82,0,1,1,0,1.63Z"/></svg>