<svg id="Layer_1" data-name="Layer 1" xmlns="http://www.w3.org/2000/svg" xmlns:xlink="http://www.w3.org/1999/xlink" viewBox="0 0 80.55 61"><defs><style>.cls-1{fill:url(#linear-gradient);}.cls-2{fill:url(#linear-gradient-2);}.cls-3{fill:url(#linear-gradient-3);}.cls-4{fill:url(#linear-gradient-4);}.cls-5{fill:url(#linear-gradient-5);}.cls-6{fill:url(#linear-gradient-6);}.cls-7{fill:url(#linear-gradient-7);}.cls-8{fill:url(#linear-gradient-8);}.cls-9{fill:url(#linear-gradient-9);}.cls-10{fill:url(#linear-gradient-10);}.cls-11{fill:url(#linear-gradient-11);}.cls-12{fill:url(#linear-gradient-12);}.cls-13{fill:url(#linear-gradient-13);}.cls-14{fill:url(#linear-gradient-14);}.cls-15{fill:url(#linear-gradient-15);}</style><linearGradient id="linear-gradient" x1="74.3" y1="-0.82" x2="-19.7" y2="53.45" gradientUnits="userSpaceOnUse"><stop offset="0" stop-color="#a4e22d"/><stop offset="1" stop-color="#29e387"/></linearGradient><linearGradient id="linear-gradient-2" x1="74.06" y1="-2.04" x2="-21.31" y2="53.03" xlink:href="#linear-gradient"/><linearGradient id="linear-gradient-3" x1="75.99" y1="-0.45" x2="-19.55" y2="54.71" xlink:href="#linear-gradient"/><linearGradient id="linear-gradient-4" x1="79.55" y1="-3.88" x2="-25.1" y2="56.54" xlink:href="#linear-gradient"/><linearGradient id="linear-gradient-5" x1="71.87" y1="-15.33" x2="-32.79" y2="45.1" xlink:href="#linear-gradient"/><linearGradient id="linear-gradient-6" x1="85.62" y1="5.8" x2="-18.36" y2="65.83" xlink:href="#linear-gradient"/><linearGradient id="linear-gradient-7" x1="78.09" y1="-2.98" x2="-23.53" y2="55.69" xlink:href="#linear-gradient"/><linearGradient id="linear-gradient-8" x1="92.35" y1="19" x2="-9" y2="77.52" xlink:href="#linear-gradient"/><linearGradient id="linear-gradient-9" x1="92.18" y1="16.6" x2="-12.28" y2="76.91" xlink:href="#linear-gradient"/><linearGradient id="linear-gradient-10" x1="93.41" y1="18.4" x2="-10.98" y2="78.67" xlink:href="#linear-gradient"/><linearGradient id="linear-gradient-11" x1="96.37" y1="22.82" x2="-7.96" y2="83.05" xlink:href="#linear-gradient"/><linearGradient id="linear-gradient-12" x1="94.9" y1="20.61" x2="-9.47" y2="80.87" xlink:href="#linear-gradient"/><linearGradient id="linear-gradient-13" x1="100.11" y1="30.97" x2="1.59" y2="94.67" xlink:href="#linear-gradient"/><linearGradient id="linear-gradient-14" x1="103.16" y1="35.7" x2="4.65" y2="99.39" xlink:href="#linear-gradient"/><linearGradient id="linear-gradient-15" x1="98.23" y1="28.08" x2="-0.28" y2="91.77" xlink:href="#linear-gradient"/></defs><title>Vector Smart Object5</title><path class="cls-1" d="M27.76,51.6a.79.79,0,0,1-.79-.79V1.29a.79.79,0,1,1,1.58,0V50.81A.79.79,0,0,1,27.76,51.6Z"/><path class="cls-2" d="M25.55,51.34a.79.79,0,0,1-.62-.3c-11-13.59-10.5-24.42-10.47-24.87V25.09C15.3,9.36,24.37,1.3,24.76,1a.78.78,0,1,1,1,1.18c-.09.08-9,8-9.76,23v1.07c0,.16-.48,10.76,10.13,23.84A.79.79,0,0,1,26,51.16.78.78,0,0,1,25.55,51.34Z"/><path class="cls-3" d="M30.19,51.36a.86.86,0,0,1-.5-.17.8.8,0,0,1-.11-1.11C40.17,37,39.48,26.64,39.47,26.54V25.36c-.79-15-9.93-23.14-10-23.22a.78.78,0,1,1,1-1.18c.4.34,9.73,8.66,10.57,24.35v1.17c0,.37.79,11-10.24,24.59A.78.78,0,0,1,30.19,51.36Z"/><path class="cls-4" d="M52.7,26.67H3.29a.79.79,0,1,1,0-1.57H52.7a.79.79,0,1,1,0,1.57Z"/><path class="cls-5" d="M27.71,16.05H25.54C16.75,15.67,9,10.82,8.66,10.61a.77.77,0,0,1-.24-1.08A.78.78,0,0,1,9.5,9.28c.08.05,7.74,4.84,16.08,5.19H30a40.55,40.55,0,0,0,16.33-5,.79.79,0,0,1,1.07.31.78.78,0,0,1-.3,1.07A41.69,41.69,0,0,1,30,16.05Z"/><path class="cls-6" d="M41.4,38.62A39.81,39.81,0,0,0,29.79,36H25.35c-8.77.38-16.53,5.23-16.85,5.44a.78.78,0,0,0-.25,1.08.79.79,0,0,0,.67.37.81.81,0,0,0,.42-.12c.07-.05,7.74-4.84,16-5.19h4.38a38.67,38.67,0,0,1,11.55,2.7C41.34,39.71,41.37,39.15,41.4,38.62Z"/><path class="cls-7" d="M27.84,2.07a24.06,24.06,0,0,1,24.07,24,23.65,23.65,0,0,1-1,6.87h1.48l.19,0a25.33,25.33,0,0,0,1-6.84A25.73,25.73,0,1,0,41.27,47.77c0-.59,0-1.2,0-1.81A24,24,0,1,1,27.84,2.07Z"/><path class="cls-8" d="M43.88,54.92a3.4,3.4,0,0,1-2.33-.87,3.17,3.17,0,0,1-.89-2.56c.13-2.76,0-16.41,0-16.55a2.94,2.94,0,0,1,.77-2A3.12,3.12,0,0,1,43.68,32C46,32,67,32,67.84,32a3.66,3.66,0,0,1,2.55.82A2.82,2.82,0,0,1,71.26,35v4.28a.82.82,0,0,1-1.63,0V35a1.21,1.21,0,0,0-.34-1,2.05,2.05,0,0,0-1.38-.4c-.17,0-9.81,0-16.89,0-3.59,0-6.53,0-7.29,0-1.31,0-1.44.9-1.44,1.27,0,.57.13,13.84,0,16.65a1.63,1.63,0,0,0,.38,1.3,2,2,0,0,0,1.35.41H57a.82.82,0,0,1,.82.81.82.82,0,0,1-.82.82H43.88Z"/><path class="cls-9" d="M62.54,39.29H45.83a.76.76,0,0,1,0-1.52H62.54a.76.76,0,1,1,0,1.52Z"/><path class="cls-10" d="M59.19,42.77H45.83a.76.76,0,0,1,0-1.52H59.19a.76.76,0,0,1,0,1.52Z"/><path class="cls-11" d="M57.2,49.47H45.83a.76.76,0,0,1,0-1.51H57.2a.76.76,0,0,1,0,1.51Z"/><path class="cls-12" d="M58.24,46.12H45.83a.76.76,0,0,1,0-1.52H58.24a.76.76,0,1,1,0,1.52Z"/><path class="cls-13" d="M63.83,60.29h-.07a.71.71,0,0,1-.61-.51l-.87-3.19-3.35,1.3a.7.7,0,0,1-.85-1l4.54-7.58a.7.7,0,0,1,1.2.72l-3.49,5.83L62.5,55a.71.71,0,0,1,.57,0,.72.72,0,0,1,.36.44L64,57.61l2.19-4.53a.7.7,0,1,1,1.26.61l-3,6.21A.7.7,0,0,1,63.83,60.29Z"/><path class="cls-14" d="M72.61,60.5a.71.71,0,0,1-.64-.42L68.86,52.8l1.29-.55,2.23,5.23.49-2.34a.69.69,0,0,1,1-.5l2.3,1L73,49.52l1.24-.65,4.08,7.88a.7.7,0,0,1-.9,1l-3.32-1.44-.76,3.67a.7.7,0,0,1-.62.56Z"/><path class="cls-15" d="M68.89,53.31a6.26,6.26,0,1,1,6.26-6.26A6.27,6.27,0,0,1,68.89,53.31Zm0-10.88a4.63,4.63,0,1,0,4.63,4.62A4.63,4.63,0,0,0,68.89,42.43Z"/></svg>