<svg id="Layer_1" data-name="Layer 1" xmlns="http://www.w3.org/2000/svg" xmlns:xlink="http://www.w3.org/1999/xlink" viewBox="0 0 61 61"><defs><style>.cls-1{fill:url(#linear-gradient);}.cls-2{fill:url(#linear-gradient-2);}</style><linearGradient id="linear-gradient" x1="64.85" y1="2.02" x2="-0.23" y2="63.51" gradientUnits="userSpaceOnUse"><stop offset="0" stop-color="#a4e22d"/><stop offset="1" stop-color="#29e387"/></linearGradient><linearGradient id="linear-gradient-2" x1="64.85" y1="2.02" x2="-0.23" y2="63.51" xlink:href="#linear-gradient"/></defs><title>Vector Smart Object5</title><path class="cls-1" d="M60.83,35.83,48.65,2.35A2.59,2.59,0,0,0,45.33.81L44,1.28A2.57,2.57,0,0,0,42.5,4.59v0C34.42,12.14,24.08,17.68,10,22A2.27,2.27,0,0,0,8.6,23.19a2.39,2.39,0,0,0-.09,1.86A10.25,10.25,0,0,0,3,37.94a10.23,10.23,0,0,0,12.55,6.3,2.4,2.4,0,0,0,1.26,1.37,2.23,2.23,0,0,0,.88.18,2.45,2.45,0,0,0,.95-.2l1.61-.67,7.26,13a4.64,4.64,0,0,0,8.11-4.51L29,41.72A71.9,71.9,0,0,1,54.67,38v0A2.57,2.57,0,0,0,56,39.52a2.52,2.52,0,0,0,2,.09l1.28-.47A2.58,2.58,0,0,0,60.83,35.83ZM12.58,43.48a9.05,9.05,0,0,1-8.5-5.95A9,9,0,0,1,8.92,26.17l6.17,16.94A8.77,8.77,0,0,1,12.58,43.48ZM34.53,54a3.44,3.44,0,0,1-6,3.35L21.32,44.47c2.24-.88,4.42-1.68,6.56-2.38Zm-16.4-9.54a1.11,1.11,0,0,1-.89,0,1.17,1.17,0,0,1-.63-.72l-7-19.11a1.18,1.18,0,0,1,0-1,1.1,1.1,0,0,1,.7-.55C24.4,18.83,34.78,13.31,43,5.83l11.28,31C43.17,36.35,31.66,38.79,18.13,44.49ZM58.88,38l-1.29.47a1.37,1.37,0,0,1-1.07-.05,1.41,1.41,0,0,1-.72-.78L43.62,4.18a1.4,1.4,0,0,1,.83-1.78l1.29-.47a1.34,1.34,0,0,1,.48-.08,1.41,1.41,0,0,1,1.31.91L59.71,36.23A1.4,1.4,0,0,1,58.88,38Z"/><path class="cls-2" d="M31.5,60.5A4.79,4.79,0,0,1,27.33,58l-7.2-12.93-1.48.62a2.45,2.45,0,0,1-1.95,0,2.49,2.49,0,0,1-1.29-1.32,10.13,10.13,0,0,1-2.83.4A10.43,10.43,0,0,1,2.81,38,10.39,10.39,0,0,1,8.33,25,2.42,2.42,0,0,1,10,21.88c14-4.33,24.3-9.83,32.36-17.31a2.71,2.71,0,0,1,.12-2A2.79,2.79,0,0,1,44,1.13L45.28.67A2.74,2.74,0,0,1,48.79,2.3L61,35.77a2.73,2.73,0,0,1-1.63,3.51l-1.29.47a2.73,2.73,0,0,1-3.48-1.56,71.59,71.59,0,0,0-25.31,3.62L35.7,53.38a4.79,4.79,0,0,1-2.55,6.83A4.9,4.9,0,0,1,31.5,60.5ZM20.27,44.73l.06.12,7.26,13A4.51,4.51,0,0,0,31.5,60.2a4.34,4.34,0,0,0,1.55-.28,4.49,4.49,0,0,0,2.39-6.4L28.81,41.63l.18-.05a72.22,72.22,0,0,1,25.69-3.69h.1l0,.1a2.42,2.42,0,0,0,3.12,1.47L59.23,39a2.43,2.43,0,0,0,1.46-3.12L48.51,2.4A2.44,2.44,0,0,0,45.38,1l-1.28.47a2.41,2.41,0,0,0-1.38,1.26,2.45,2.45,0,0,0-.08,1.86l0,.09-.06.09C34.5,12.27,24.16,17.81,10.06,22.17a2.13,2.13,0,0,0-1.32,1.09A2.18,2.18,0,0,0,8.66,25l0,.13-.13.06a10.08,10.08,0,0,0,4,19.33,9.81,9.81,0,0,0,2.88-.43l.13,0,.05.13a2.25,2.25,0,0,0,1.18,1.29,2.16,2.16,0,0,0,1.71,0l1.61-.67ZM31.51,59.3a3.56,3.56,0,0,1-3.13-1.84L21.1,44.4l.16-.07c2.23-.88,4.44-1.68,6.57-2.38l.12,0L34.66,54a3.62,3.62,0,0,1-1.91,5.13A3.84,3.84,0,0,1,31.51,59.3Zm-10-14.75,7.11,12.76a3.29,3.29,0,1,0,5.75-3.21h0L27.81,42.27C25.77,43,23.66,43.71,21.53,44.55Zm-3.89.19a1.18,1.18,0,0,1-.46-.09,1.32,1.32,0,0,1-.71-.8l-7-19.12a1.36,1.36,0,0,1,0-1.07,1.28,1.28,0,0,1,.79-.64c14-4.33,24.37-9.83,32.53-17.3L43,5.57l.08.21L54.45,37h-.23c-11-.48-22.5,2-36,7.65A1.34,1.34,0,0,1,17.64,44.74ZM42.88,6.09C34.72,13.52,24.39,19,10.41,23.31a1,1,0,0,0-.61.48,1.06,1.06,0,0,0,0,.84l7,19.11a1,1,0,0,0,.54.63,1,1,0,0,0,.78,0h0C31.56,38.67,43,36.23,54,36.67ZM12.58,43.63a9.21,9.21,0,0,1-8.64-6.05A9.17,9.17,0,0,1,8.86,26L9,26l6.27,17.24-.15,0A9.31,9.31,0,0,1,12.58,43.63ZM8.84,26.38a8.88,8.88,0,0,0,3.74,16.94A8.68,8.68,0,0,0,14.89,43ZM57.11,38.72a1.49,1.49,0,0,1-.65-.14,1.59,1.59,0,0,1-.8-.87L43.48,4.23a1.53,1.53,0,0,1,.05-1.17,1.49,1.49,0,0,1,.87-.8l1.29-.47a1.61,1.61,0,0,1,.53-.1,1.55,1.55,0,0,1,1.45,1L59.85,36.18a1.55,1.55,0,0,1-.92,2l-1.29.47A1.6,1.6,0,0,1,57.11,38.72ZM46.22,2a1.25,1.25,0,0,0-.43.07l-1.29.47a1.22,1.22,0,0,0-.7.64,1.25,1.25,0,0,0,0,.95L55.94,37.6a1.26,1.26,0,0,0,.65.71,1.25,1.25,0,0,0,.95,0l1.28-.47a1.25,1.25,0,0,0,.75-1.59L47.38,2.81A1.22,1.22,0,0,0,46.22,2Z"/></svg>