<svg id="Layer_1" data-name="Layer 1" xmlns="http://www.w3.org/2000/svg" xmlns:xlink="http://www.w3.org/1999/xlink" viewBox="0 0 71.74 61"><defs><style>.cls-1{fill:url(#linear-gradient);}.cls-2{fill:url(#linear-gradient-2);}.cls-3{fill:url(#linear-gradient-3);}.cls-4{fill:url(#linear-gradient-4);}.cls-5{fill:url(#linear-gradient-5);}.cls-6{fill:url(#linear-gradient-6);}</style><linearGradient id="linear-gradient" x1="97.76" y1="-52.68" x2="-57.61" y2="87.46" gradientUnits="userSpaceOnUse"><stop offset="0" stop-color="#a4e22d"/><stop offset="1" stop-color="#29e387"/></linearGradient><linearGradient id="linear-gradient-2" x1="98.6" y1="-51.75" x2="-56.77" y2="88.39" xlink:href="#linear-gradient"/><linearGradient id="linear-gradient-3" x1="111.94" y1="-36.95" x2="-43.43" y2="103.19" xlink:href="#linear-gradient"/><linearGradient id="linear-gradient-4" x1="108.97" y1="-40.25" x2="-46.4" y2="99.89" xlink:href="#linear-gradient"/><linearGradient id="linear-gradient-5" x1="123.79" y1="-23.82" x2="-31.58" y2="116.32" xlink:href="#linear-gradient"/><linearGradient id="linear-gradient-6" x1="125.35" y1="-22.08" x2="-30.02" y2="118.06" xlink:href="#linear-gradient"/></defs><title>Vector Smart Object5</title><path class="cls-1" d="M36.76,19.68l0-4.44c0-7.16-5.4-13-12-13l-2,0a11.34,11.34,0,0,0-8.43,3.88,13.52,13.52,0,0,0-3.47,9.23l0,4.29H9.25l0-4.28A15.4,15.4,0,0,1,13.17,4.92,12.93,12.93,0,0,1,22.74.51h2c7.48,0,13.61,6.61,13.65,14.73l0,4.45Z"/><path class="cls-2" d="M31.05,19.68V16.09c0-4.12-3.08-7.47-6.86-7.47h-.77c-3.78,0-6.86,3.35-6.86,7.47v3.59H14.94V16.09c0-5.09,3.81-9.24,8.48-9.24h.77c4.67,0,8.47,4.15,8.47,9.24v3.59Z"/><path class="cls-3" d="M24.5,48.55a1,1,0,0,1-1-1V40.78l-.38-.24a2.54,2.54,0,1,1,2.68,0l-.38.24v6.81A1,1,0,0,1,24.5,48.55Z"/><path class="cls-4" d="M30.85,60.22H10.54a.9.9,0,0,1-.36-.08C3.78,57,2.69,49.52,2.65,49.2V27.71A4.56,4.56,0,0,1,4,24.17a3.75,3.75,0,0,1,2.75-.91s8,0,15.9-.05c4,0,8,0,11,0,5.62,0,5.62,0,5.81.63l-1.6.46.8-.21-.1.82c-.84-.06-19.52,0-31.88,0a2.21,2.21,0,0,0-1.56.5,3,3,0,0,0-.75,2.29V49.09h0s1,6.69,6.43,9.46H30.85a.84.84,0,0,1,.83.84A.83.83,0,0,1,30.85,60.22Z"/><path class="cls-5" d="M55.79,30v-2.1l2.58-5.15a.8.8,0,0,0-1.28-.93,2.85,2.85,0,0,1-4.2,0,4.4,4.4,0,0,0-6.45,0,2.85,2.85,0,0,1-4.2,0,.8.8,0,0,0-1.28.93l2.58,5.15V30c-2,1.68-13.32,11.32-13.32,19,0,11.32,11.34,11.45,11.46,11.45h16c.12,0,11.45-.13,11.45-11.45C69.1,41.35,57.82,31.71,55.79,30Zm-1.6-.42h-9V28.54h9ZM47.57,23a2.86,2.86,0,0,1,4.19,0,4.72,4.72,0,0,0,4,1.36L54.5,27H44.83l-1.32-2.64A4.23,4.23,0,0,0,47.57,23ZM57.65,58.9h-16c-.41,0-9.86-.14-9.86-9.85,0-7,11.11-16.44,12.8-17.84H54.7c1.7,1.4,12.81,10.86,12.81,17.84C67.51,58.76,58.05,58.9,57.65,58.9Z"/><path class="cls-6" d="M51.27,48.33a1.28,1.28,0,0,0-.32-.91,2.78,2.78,0,0,0-1.08-.63,12.14,12.14,0,0,1-1.31-.57,4.16,4.16,0,0,1-1-.64,2.79,2.79,0,0,1-.61-.87,2.83,2.83,0,0,1-.22-1.18,2.62,2.62,0,0,1,.75-1.93,3.19,3.19,0,0,1,2-.88V39.23h1.11v1.51a2.94,2.94,0,0,1,1.94,1A3.42,3.42,0,0,1,53.28,44h-2a2,2,0,0,0-.35-1.26,1.16,1.16,0,0,0-.92-.41,1.21,1.21,0,0,0-.89.32,1.25,1.25,0,0,0-.31.9,1.19,1.19,0,0,0,.3.85,3.3,3.3,0,0,0,1.15.66,12.29,12.29,0,0,1,1.37.63,4,4,0,0,1,.9.67,2.54,2.54,0,0,1,.57.85,3,3,0,0,1,.19,1.12,2.56,2.56,0,0,1-.74,1.92,3.2,3.2,0,0,1-2,.87V52.5H49.4V51.12a3.35,3.35,0,0,1-2.22-1,3.3,3.3,0,0,1-.78-2.3h2a1.84,1.84,0,0,0,.4,1.28,1.45,1.45,0,0,0,1.13.44,1.37,1.37,0,0,0,1-.33A1.1,1.1,0,0,0,51.27,48.33Z"/></svg>