<svg id="Layer_1" data-name="Layer 1" xmlns="http://www.w3.org/2000/svg" xmlns:xlink="http://www.w3.org/1999/xlink" viewBox="0 0 61 61"><defs><style>.cls-1{fill:url(#linear-gradient);}.cls-2{fill:url(#linear-gradient-2);}.cls-3{fill:url(#linear-gradient-3);}.cls-4{fill:url(#linear-gradient-4);}.cls-5{fill:url(#linear-gradient-5);}</style><linearGradient id="linear-gradient" x1="56.6" y1="-3.88" x2="-38.6" y2="95.15" gradientUnits="userSpaceOnUse"><stop offset="0" stop-color="#a4e22d"/><stop offset="1" stop-color="#29e387"/></linearGradient><linearGradient id="linear-gradient-2" x1="60.73" y1="0.09" x2="-34.47" y2="99.12" xlink:href="#linear-gradient"/><linearGradient id="linear-gradient-3" x1="74.28" y1="13.11" x2="-20.92" y2="112.14" xlink:href="#linear-gradient"/><linearGradient id="linear-gradient-4" x1="62.69" y1="1.98" x2="-32.51" y2="101" xlink:href="#linear-gradient"/><linearGradient id="linear-gradient-5" x1="53.61" y1="-6.76" x2="-41.59" y2="92.27" xlink:href="#linear-gradient"/></defs><title>Vector Smart Object5</title><polyline class="cls-1" points="41.6 9.28 38.38 12.33 37.25 11.14 42.49 6.18 45.39 12.89 43.89 13.54 41.98 9.11"/><polygon class="cls-2" points="10.16 48.95 10.16 0.5 8.46 0.5 8.46 7.54 1.82 7.54 1.82 9.24 8.46 9.24 8.46 13.83 1.82 13.83 1.82 15.53 8.46 15.53 8.46 20.12 1.82 20.12 1.82 21.82 8.46 21.82 8.46 26.41 1.82 26.41 1.82 28.11 8.46 28.11 8.46 32.7 1.82 32.7 1.82 34.4 8.46 34.4 8.46 38.99 1.82 38.99 1.82 40.69 8.46 40.69 8.46 45.28 1.82 45.28 1.82 46.98 8.46 46.98 8.46 51.57 1.82 51.57 1.82 53.27 8.46 53.27 8.46 53.85 8.46 60.5 10.16 60.5 10.16 53.85 14.76 53.85 14.76 60.5 16.45 60.5 16.45 53.85 21.05 53.85 21.05 60.5 22.75 60.5 22.75 53.85 27.34 53.85 27.34 60.5 29.04 60.5 29.04 53.85 33.63 53.85 33.63 60.5 35.33 60.5 35.33 53.85 39.92 53.85 39.92 60.5 41.62 60.5 41.62 53.85 46.54 53.85 46.54 60.5 48.24 60.5 48.24 53.85 52.83 53.85 52.83 60.5 54.53 60.5 54.53 53.85 59.97 53.85 59.97 52.15 40.3 52.15 38.6 52.15 24.41 52.15 22.71 52.15 10.21 52.06 10.16 49.33 10.16 48.95"/><polyline class="cls-3" points="46.04 43.42 46.25 38.99 47.88 39.07 47.53 46.28 40.8 43.43 41.44 41.93 45.88 43.8"/><polygon class="cls-4" points="45.83 44.42 36.85 35.08 25.24 30.67 10.06 33.62 9.76 32.05 25.38 29.01 37.76 33.7 46.99 43.31 45.83 44.42"/><polygon class="cls-5" points="10.09 30.21 9.73 28.64 27.51 24.52 39.02 16.24 41.43 8.21 42.97 8.67 40.4 17.22 28.18 26.02 10.09 30.21"/></svg>