<svg id="Layer_1" data-name="Layer 1" xmlns="http://www.w3.org/2000/svg" xmlns:xlink="http://www.w3.org/1999/xlink" viewBox="0 0 61 61"><defs><style>.cls-1{fill:url(#linear-gradient);}.cls-2{fill:url(#linear-gradient-2);}.cls-3{fill:url(#linear-gradient-3);}.cls-4{fill:url(#linear-gradient-4);}.cls-5{fill:url(#linear-gradient-5);}.cls-6{fill:url(#linear-gradient-6);}.cls-7{fill:url(#linear-gradient-7);}.cls-8{fill:url(#linear-gradient-8);}.cls-9{fill:url(#linear-gradient-9);}.cls-10{fill:url(#linear-gradient-10);}.cls-11{fill:url(#linear-gradient-11);}.cls-12{fill:url(#linear-gradient-12);}.cls-13{fill:url(#linear-gradient-13);}.cls-14{fill:url(#linear-gradient-14);}.cls-15{fill:url(#linear-gradient-15);}.cls-16{fill:url(#linear-gradient-16);}.cls-17{fill:url(#linear-gradient-17);}.cls-18{fill:url(#linear-gradient-18);}.cls-19{fill:url(#linear-gradient-19);}</style><linearGradient id="linear-gradient" x1="109.15" y1="-13.07" x2="-34.9" y2="70.1" gradientUnits="userSpaceOnUse"><stop offset="0" stop-color="#a4e22d"/><stop offset="1" stop-color="#29e387"/></linearGradient><linearGradient id="linear-gradient-2" x1="101.09" y1="-28.74" x2="-46.71" y2="56.59" xlink:href="#linear-gradient"/><linearGradient id="linear-gradient-3" x1="96.41" y1="-18.15" x2="-35.61" y2="58.07" xlink:href="#linear-gradient"/><linearGradient id="linear-gradient-4" x1="96.46" y1="-17.36" x2="-33.55" y2="57.69" xlink:href="#linear-gradient"/><linearGradient id="linear-gradient-5" x1="100.19" y1="-13.77" x2="-30.54" y2="61.71" xlink:href="#linear-gradient"/><linearGradient id="linear-gradient-6" x1="100.01" y1="-13.94" x2="-28.81" y2="60.44" xlink:href="#linear-gradient"/><linearGradient id="linear-gradient-7" x1="110.94" y1="-5.12" x2="-25.8" y2="73.83" xlink:href="#linear-gradient"/><linearGradient id="linear-gradient-8" x1="116.73" y1="-11.95" x2="-36.87" y2="76.73" xlink:href="#linear-gradient"/><linearGradient id="linear-gradient-9" x1="121.88" y1="-3.43" x2="-30.97" y2="84.82" xlink:href="#linear-gradient"/><linearGradient id="linear-gradient-10" x1="126.06" y1="10.11" x2="-17.99" y2="93.28" xlink:href="#linear-gradient"/><linearGradient id="linear-gradient-11" x1="122.56" y1="5.16" x2="-21.5" y2="88.33" xlink:href="#linear-gradient"/><linearGradient id="linear-gradient-12" x1="109.54" y1="-12.61" x2="-34.51" y2="70.56" xlink:href="#linear-gradient"/><linearGradient id="linear-gradient-13" x1="110.44" y1="-12.79" x2="-34.77" y2="71.05" xlink:href="#linear-gradient"/><linearGradient id="linear-gradient-14" x1="122.22" y1="8.7" x2="-17.74" y2="89.51" xlink:href="#linear-gradient"/><linearGradient id="linear-gradient-15" x1="102.25" y1="15.71" x2="-4.79" y2="77.51" xlink:href="#linear-gradient"/><linearGradient id="linear-gradient-16" x1="117.64" y1="-1.53" x2="-26.42" y2="81.64" xlink:href="#linear-gradient"/><linearGradient id="linear-gradient-17" x1="119.04" y1="-1.46" x2="-26.76" y2="82.72" xlink:href="#linear-gradient"/><linearGradient id="linear-gradient-18" x1="165.23" y1="-35.54" x2="-65.67" y2="97.77" xlink:href="#linear-gradient"/><linearGradient id="linear-gradient-19" x1="118.43" y1="-0.35" x2="-25.63" y2="82.82" xlink:href="#linear-gradient"/></defs><title>Vector Smart Object5</title><path class="cls-1" d="M16.06,45.42a4.74,4.74,0,1,1,4.74-4.75A4.75,4.75,0,0,1,16.06,45.42Zm0-8.12a3.38,3.38,0,1,0,3.37,3.37A3.38,3.38,0,0,0,16.06,37.3Z"/><path class="cls-2" d="M5.37,25.81A.68.68,0,0,1,5,24.57a19.46,19.46,0,0,1,11.08-3.44.68.68,0,1,1,0,1.36,18.08,18.08,0,0,0-10.3,3.2A.64.64,0,0,1,5.37,25.81Z"/><path class="cls-3" d="M27.52,32H23.29a.69.69,0,0,1-.68-.69V14.4a.68.68,0,0,1,.68-.68h4.23a.68.68,0,0,1,.69.68V31.28A.69.69,0,0,1,27.52,32ZM24,30.6h2.86V15.08H24Z"/><path class="cls-4" d="M35,32H30.74a.68.68,0,0,1-.68-.69V7.43a.67.67,0,0,1,.68-.68H35a.68.68,0,0,1,.69.68V31.28A.69.69,0,0,1,35,32ZM31.43,30.6h2.86V8.11H31.43Z"/><path class="cls-5" d="M42.42,32H38.19a.68.68,0,0,1-.68-.69v-21a.68.68,0,0,1,.68-.69h4.23a.69.69,0,0,1,.69.69v21A.69.69,0,0,1,42.42,32ZM38.88,30.6h2.86V11H38.88Z"/><path class="cls-6" d="M49.87,32H45.64a.68.68,0,0,1-.68-.69V1.18A.68.68,0,0,1,45.64.5h4.23a.68.68,0,0,1,.68.68v30.1A.68.68,0,0,1,49.87,32ZM46.32,30.6h2.87V1.87H46.32Z"/><path class="cls-7" d="M57.32,32H53.09a.68.68,0,0,1-.68-.69V22.84a.67.67,0,0,1,.68-.68h4.23a.67.67,0,0,1,.68.68v8.44A.68.68,0,0,1,57.32,32ZM53.77,30.6h2.87V23.53H53.77Z"/><path class="cls-8" d="M60.41,32H23.29a.69.69,0,0,1-.68-.69.68.68,0,0,1,.68-.68H60.41a.68.68,0,0,1,.68.68A.69.69,0,0,1,60.41,32Z"/><path class="cls-9" d="M60.41,36.4H47.76a.68.68,0,0,1-.69-.68.69.69,0,0,1,.69-.69H60.41a.69.69,0,0,1,.68.69A.68.68,0,0,1,60.41,36.4Z"/><path class="cls-10" d="M49.1,57.34a2.8,2.8,0,1,1,2.8-2.8A2.81,2.81,0,0,1,49.1,57.34Zm0-4.23a1.43,1.43,0,1,0,1.43,1.43A1.43,1.43,0,0,0,49.1,53.11Z"/><path class="cls-11" d="M56.55,46.07a2.8,2.8,0,1,1,2.8-2.8A2.81,2.81,0,0,1,56.55,46.07Zm0-4.23A1.43,1.43,0,1,0,58,43.27,1.43,1.43,0,0,0,56.55,41.84Z"/><path class="cls-12" d="M24.64,33.61a2.8,2.8,0,1,0,2.8,2.8A2.8,2.8,0,0,0,24.64,33.61Zm0,4.23a1.44,1.44,0,1,1,1.43-1.43A1.44,1.44,0,0,1,24.64,37.84Z"/><path class="cls-13" d="M28.57,34.29a13.95,13.95,0,0,1-9.82,20,.71.71,0,0,0-.46.33l-2.23,3.86-2.23-3.86a.68.68,0,0,0-.46-.33,14,14,0,0,1,2.69-27.73,13.77,13.77,0,0,1,4.43.75V25.84a15,15,0,0,0-4.43-.68A15.37,15.37,0,0,0,12.8,55.54l2.67,4.62a.68.68,0,0,0,.59.34.67.67,0,0,0,.59-.34l2.67-4.62A15.32,15.32,0,0,0,30.09,34.29Z"/><path class="cls-14" d="M49.7,52.55a3.58,3.58,0,0,1,1.36.26l5-7.5a2.13,2.13,0,0,1-1.14-.76l-5.28,8Z"/><path class="cls-15" d="M48.76,52.67l-5.49-9a2,2,0,0,1-1.16.72l5.43,8.9A3.08,3.08,0,0,1,48.76,52.67Z"/><path class="cls-16" d="M41.65,39.54a2.8,2.8,0,1,0,2.8,2.8A2.81,2.81,0,0,0,41.65,39.54Zm0,4.23a1.43,1.43,0,1,1,1.43-1.43A1.43,1.43,0,0,1,41.65,43.77Z"/><path class="cls-17" d="M35.61,48l4.91-3.91a2.14,2.14,0,0,1-.85-1.07L34.76,47A1.43,1.43,0,0,1,35.61,48Z"/><path class="cls-18" d="M26.55,37.68a3.13,3.13,0,0,1-1,1l7.33,9.09A1.43,1.43,0,0,1,34,46.87Z"/><path class="cls-19" d="M34.2,45.47a2.8,2.8,0,1,0,2.8,2.8A2.8,2.8,0,0,0,34.2,45.47Zm0,4.23a1.43,1.43,0,1,1,1.43-1.43A1.43,1.43,0,0,1,34.2,49.7Z"/></svg>